<?xml version="1.0" encoding="UTF-8"?>
<svg width="304px" height="87px" viewBox="0 0 304 87" version="1.1" xmlns="http://www.w3.org/2000/svg" xmlns:xlink="http://www.w3.org/1999/xlink">
    <title>Logotype</title>
    <g id="Brand" stroke="none" stroke-width="1" fill="none" fill-rule="evenodd">
        <g id="Extra-Small" transform="translate(-348.000000, -707.000000)">
            <g id="Logotype" transform="translate(348.000000, 707.000000)">
                <g id="copybot" transform="translate(109.900000, 18.200000)" fill="#FFFFFF" fill-rule="nonzero">
                    <path d="M17.2,21.35 C16.8333333,20.8166667 16.3166667,20.375 15.65,20.025 C14.9833333,19.675 14.2666667,19.5 13.5,19.5 C11.6,19.5 10.125,20.0666667 9.075,21.2 C8.025,22.3333333 7.5,23.8166667 7.5,25.65 C7.5,27.4833333 8.025,28.9666667 9.075,30.1 C10.125,31.2333333 11.6,31.8 13.5,31.8 C14.3333333,31.8 15.05,31.6166667 15.65,31.25 C16.25,30.8833333 16.7666667,30.45 17.2,29.95 L22.15,35.15 C20.9833333,36.35 19.6083333,37.1916667 18.025,37.675 C16.4416667,38.1583333 14.9333333,38.4 13.5,38.4 C11.6333333,38.4 9.875,38.1 8.225,37.5 C6.575,36.9 5.14166667,36.0416667 3.925,34.925 C2.70833333,33.8083333 1.75,32.4666667 1.05,30.9 C0.35,29.3333333 0,27.5833333 0,25.65 C0,23.7166667 0.35,21.9666667 1.05,20.4 C1.75,18.8333333 2.70833333,17.4916667 3.925,16.375 C5.14166667,15.2583333 6.575,14.4 8.225,13.8 C9.875,13.2 11.6333333,12.9 13.5,12.9 C14.9333333,12.9 16.4416667,13.1416667 18.025,13.625 C19.6083333,14.1083333 20.9833333,14.95 22.15,16.15 L17.2,21.35 Z" id="Path"></path>
                    <path d="M23.95,25.65 C23.95,23.7166667 24.3,21.9666667 25,20.4 C25.7,18.8333333 26.6583333,17.4916667 27.875,16.375 C29.0916667,15.2583333 30.525,14.4 32.175,13.8 C33.825,13.2 35.5833333,12.9 37.45,12.9 C39.3166667,12.9 41.075,13.2 42.725,13.8 C44.375,14.4 45.8083333,15.2583333 47.025,16.375 C48.2416667,17.4916667 49.2,18.8333333 49.9,20.4 C50.6,21.9666667 50.95,23.7166667 50.95,25.65 C50.95,27.5833333 50.6,29.3333333 49.9,30.9 C49.2,32.4666667 48.2416667,33.8083333 47.025,34.925 C45.8083333,36.0416667 44.375,36.9 42.725,37.5 C41.075,38.1 39.3166667,38.4 37.45,38.4 C35.5833333,38.4 33.825,38.1 32.175,37.5 C30.525,36.9 29.0916667,36.0416667 27.875,34.925 C26.6583333,33.8083333 25.7,32.4666667 25,30.9 C24.3,29.3333333 23.95,27.5833333 23.95,25.65 Z M31.45,25.65 C31.45,27.4833333 31.975,28.9666667 33.025,30.1 C34.075,31.2333333 35.55,31.8 37.45,31.8 C39.35,31.8 40.825,31.2333333 41.875,30.1 C42.925,28.9666667 43.45,27.4833333 43.45,25.65 C43.45,23.8166667 42.925,22.3333333 41.875,21.2 C40.825,20.0666667 39.35,19.5 37.45,19.5 C35.55,19.5 34.075,20.0666667 33.025,21.2 C31.975,22.3333333 31.45,23.8166667 31.45,25.65 Z" id="Shape"></path>
                    <path d="M56.05,13.5 L62.95,13.5 L62.95,16.7 L63.05,16.7 C63.35,16.2666667 63.7416667,15.825 64.225,15.375 C64.7083333,14.925 65.275,14.5166667 65.925,14.15 C66.575,13.7833333 67.2833333,13.4833333 68.05,13.25 C68.8166667,13.0166667 69.6333333,12.9 70.5,12.9 C72.3,12.9 73.9333333,13.2083333 75.4,13.825 C76.8666667,14.4416667 78.125,15.3083333 79.175,16.425 C80.225,17.5416667 81.0333333,18.8666667 81.6,20.4 C82.1666667,21.9333333 82.45,23.6166667 82.45,25.45 C82.45,27.15 82.1916667,28.775 81.675,30.325 C81.1583333,31.875 80.425,33.25 79.475,34.45 C78.525,35.65 77.3666667,36.6083333 76,37.325 C74.6333333,38.0416667 73.0833333,38.4 71.35,38.4 C69.7833333,38.4 68.325,38.1583333 66.975,37.675 C65.625,37.1916667 64.5166667,36.3666667 63.65,35.2 L63.55,35.2 L63.55,49.2 L56.05,49.2 L56.05,13.5 Z M62.95,25.65 C62.95,27.4833333 63.475,28.9666667 64.525,30.1 C65.575,31.2333333 67.05,31.8 68.95,31.8 C70.85,31.8 72.325,31.2333333 73.375,30.1 C74.425,28.9666667 74.95,27.4833333 74.95,25.65 C74.95,23.8166667 74.425,22.3333333 73.375,21.2 C72.325,20.0666667 70.85,19.5 68.95,19.5 C67.05,19.5 65.575,20.0666667 64.525,21.2 C63.475,22.3333333 62.95,23.8166667 62.95,25.65 Z" id="Shape"></path>
                    <path d="M100.85,41.75 C100.35,43.05 99.8666667,44.2 99.4,45.2 C98.9333333,46.2 98.3416667,47.0416667 97.625,47.725 C96.9083333,48.4083333 96,48.925 94.9,49.275 C93.8,49.625 92.35,49.8 90.55,49.8 C88.6166667,49.8 86.75,49.5 84.95,48.9 L85.95,42.75 C87.0833333,43.25 88.25,43.5 89.45,43.5 C90.2833333,43.5 90.9666667,43.4083333 91.5,43.225 C92.0333333,43.0416667 92.475,42.775 92.825,42.425 C93.175,42.075 93.4666667,41.65 93.7,41.15 C93.9333333,40.65 94.1833333,40.0666667 94.45,39.4 L95,38 L84.35,13.5 L92.45,13.5 L98.7,29.55 L98.8,29.55 L104.15,13.5 L111.85,13.5 L100.85,41.75 Z" id="Path"></path>
                    <path d="M115.35,0 L122.85,0 L122.85,16.1 L122.95,16.1 C123.816667,14.9333333 124.925,14.1083333 126.275,13.625 C127.625,13.1416667 129.083333,12.9 130.65,12.9 C132.383333,12.9 133.933333,13.2583333 135.3,13.975 C136.666667,14.6916667 137.825,15.65 138.775,16.85 C139.725,18.05 140.458333,19.425 140.975,20.975 C141.491667,22.525 141.75,24.15 141.75,25.85 C141.75,27.6833333 141.466667,29.3666667 140.9,30.9 C140.333333,32.4333333 139.525,33.7583333 138.475,34.875 C137.425,35.9916667 136.166667,36.8583333 134.7,37.475 C133.233333,38.0916667 131.6,38.4 129.8,38.4 C128.933333,38.4 128.116667,38.2833333 127.35,38.05 C126.583333,37.8166667 125.875,37.5166667 125.225,37.15 C124.575,36.7833333 124.008333,36.375 123.525,35.925 C123.041667,35.475 122.65,35.0333333 122.35,34.6 L122.25,34.6 L122.25,37.8 L115.35,37.8 L115.35,0 Z M122.25,25.65 C122.25,27.4833333 122.775,28.9666667 123.825,30.1 C124.875,31.2333333 126.35,31.8 128.25,31.8 C130.15,31.8 131.625,31.2333333 132.675,30.1 C133.725,28.9666667 134.25,27.4833333 134.25,25.65 C134.25,23.8166667 133.725,22.3333333 132.675,21.2 C131.625,20.0666667 130.15,19.5 128.25,19.5 C126.35,19.5 124.875,20.0666667 123.825,21.2 C122.775,22.3333333 122.25,23.8166667 122.25,25.65 Z" id="Shape"></path>
                    <path d="M145.25,25.65 C145.25,23.7166667 145.6,21.9666667 146.3,20.4 C147,18.8333333 147.958333,17.4916667 149.175,16.375 C150.391667,15.2583333 151.825,14.4 153.475,13.8 C155.125,13.2 156.883333,12.9 158.75,12.9 C160.616667,12.9 162.375,13.2 164.025,13.8 C165.675,14.4 167.108333,15.2583333 168.325,16.375 C169.541667,17.4916667 170.5,18.8333333 171.2,20.4 C171.9,21.9666667 172.25,23.7166667 172.25,25.65 C172.25,27.5833333 171.9,29.3333333 171.2,30.9 C170.5,32.4666667 169.541667,33.8083333 168.325,34.925 C167.108333,36.0416667 165.675,36.9 164.025,37.5 C162.375,38.1 160.616667,38.4 158.75,38.4 C156.883333,38.4 155.125,38.1 153.475,37.5 C151.825,36.9 150.391667,36.0416667 149.175,34.925 C147.958333,33.8083333 147,32.4666667 146.3,30.9 C145.6,29.3333333 145.25,27.5833333 145.25,25.65 Z M152.75,25.65 C152.75,27.4833333 153.275,28.9666667 154.325,30.1 C155.375,31.2333333 156.85,31.8 158.75,31.8 C160.65,31.8 162.125,31.2333333 163.175,30.1 C164.225,28.9666667 164.75,27.4833333 164.75,25.65 C164.75,23.8166667 164.225,22.3333333 163.175,21.2 C162.125,20.0666667 160.65,19.5 158.75,19.5 C156.85,19.5 155.375,20.0666667 154.325,21.2 C153.275,22.3333333 152.75,23.8166667 152.75,25.65 Z" id="Shape"></path>
                    <path d="M193.2,19.5 L186.6,19.5 L186.6,27.6 C186.6,28.2666667 186.633333,28.875 186.7,29.425 C186.766667,29.975 186.916667,30.45 187.15,30.85 C187.383333,31.25 187.741667,31.5583333 188.225,31.775 C188.708333,31.9916667 189.35,32.1 190.15,32.1 C190.55,32.1 191.075,32.0583333 191.725,31.975 C192.375,31.8916667 192.866667,31.7 193.2,31.4 L193.2,37.65 C192.366667,37.95 191.5,38.15 190.6,38.25 C189.7,38.35 188.816667,38.4 187.95,38.4 C186.683333,38.4 185.516667,38.2666667 184.45,38 C183.383333,37.7333333 182.45,37.3083333 181.65,36.725 C180.85,36.1416667 180.225,35.3833333 179.775,34.45 C179.325,33.5166667 179.1,32.3833333 179.1,31.05 L179.1,19.5 L174.3,19.5 L174.3,13.5 L179.1,13.5 L179.1,6.3 L186.6,6.3 L186.6,13.5 L193.2,13.5 L193.2,19.5 Z" id="Path"></path>
                </g>
                <g id="Group-2">
                    <rect id="Rectangle" fill="#FE774F" x="0" y="0" width="87" height="87" rx="8"></rect>
                    <circle id="Oval" fill="#FF7043" cx="43.5" cy="43.5" r="43.5"></circle>
                    <g id="Group" transform="translate(18.643526, 13.402969)" fill="#FFFFFF">
                        <path d="M18.3564737,19.5970306 L28.3564737,19.5970306 L28.3564737,19.5970306 L28.3564737,52.5970306 C28.3564737,56.4630238 25.2224669,59.5970306 21.3564737,59.5970306 L11.3564737,59.5970306 L11.3564737,59.5970306 L11.3564737,26.5970306 C11.3564737,22.7310373 14.4904804,19.5970306 18.3564737,19.5970306 Z" id="Rectangle" transform="translate(19.856474, 39.597031) rotate(-43.000000) translate(-19.856474, -39.597031) "></path>
                        <path d="M16.7723835,6.24148596 L34.7723835,6.24148596 C38.6383767,6.24148596 41.7723835,9.37549272 41.7723835,13.241486 L41.7723835,16.241486 C41.7723835,20.1074792 38.6383767,23.241486 34.7723835,23.241486 L23.7723835,23.241486 C19.9063902,23.241486 16.7723835,20.1074792 16.7723835,16.241486 L16.7723835,6.24148596 L16.7723835,6.24148596 Z" id="Rectangle" opacity="0.801176525" transform="translate(29.272383, 14.741486) rotate(-43.000000) translate(-29.272383, -14.741486) "></path>
                    </g>
                </g>
            </g>
        </g>
    </g>
</svg>
